<mxfile host="65bd71144e">
    <diagram id="uQtb4kDnB-4BG6wCOJv8" name="Page-1">
        <mxGraphModel dx="874" dy="793" grid="1" gridSize="10" guides="1" tooltips="1" connect="1" arrows="1" fold="1" page="1" pageScale="1" pageWidth="827" pageHeight="1169" math="0" shadow="0">
            <root>
                <mxCell id="0"/>
                <mxCell id="1" parent="0"/>
                <mxCell id="VVbpX6g2l4Uk3AssUya3-3" value="" style="swimlane;startSize=0;fontSize=11;fillColor=none;strokeColor=#000000;swimlaneFillColor=none;rounded=0;shadow=0;sketch=0;swimlaneLine=1;" parent="1" vertex="1">
                    <mxGeometry x="200" y="320" width="360" height="560" as="geometry"/>
                </mxCell>
                <mxCell id="VVbpX6g2l4Uk3AssUya3-9" value="" style="outlineConnect=0;dashed=0;verticalLabelPosition=bottom;verticalAlign=top;align=center;html=1;shape=mxgraph.aws3.iam;fillColor=#759C3E;gradientColor=none;fontSize=11;" parent="VVbpX6g2l4Uk3AssUya3-3" vertex="1">
                    <mxGeometry x="260" y="230" width="30" height="60" as="geometry"/>
                </mxCell>
                <mxCell id="VVbpX6g2l4Uk3AssUya3-8" value="" style="sketch=0;points=[[0,0,0],[0.25,0,0],[0.5,0,0],[0.75,0,0],[1,0,0],[0,1,0],[0.25,1,0],[0.5,1,0],[0.75,1,0],[1,1,0],[0,0.25,0],[0,0.5,0],[0,0.75,0],[1,0.25,0],[1,0.5,0],[1,0.75,0]];outlineConnect=0;fontColor=#232F3E;gradientColor=#F54749;gradientDirection=north;fillColor=#C7131F;strokeColor=#ffffff;dashed=0;verticalLabelPosition=bottom;verticalAlign=top;align=center;html=1;fontSize=11;fontStyle=0;aspect=fixed;shape=mxgraph.aws4.resourceIcon;resIcon=mxgraph.aws4.cognito;" parent="VVbpX6g2l4Uk3AssUya3-3" vertex="1">
                    <mxGeometry x="80" y="240" width="40" height="40" as="geometry"/>
                </mxCell>
                <mxCell id="VVbpX6g2l4Uk3AssUya3-17" value="" style="endArrow=classic;html=1;rounded=0;fontSize=11;exitX=1;exitY=0;exitDx=0;exitDy=0;exitPerimeter=0;" parent="VVbpX6g2l4Uk3AssUya3-3" source="VVbpX6g2l4Uk3AssUya3-8" edge="1">
                    <mxGeometry relative="1" as="geometry">
                        <mxPoint x="210" y="290" as="sourcePoint"/>
                        <mxPoint x="260" y="240" as="targetPoint"/>
                    </mxGeometry>
                </mxCell>
                <mxCell id="VVbpX6g2l4Uk3AssUya3-18" value="3. get policies for groups" style="edgeLabel;resizable=0;html=1;align=center;verticalAlign=middle;fontSize=11;" parent="VVbpX6g2l4Uk3AssUya3-17" connectable="0" vertex="1">
                    <mxGeometry relative="1" as="geometry"/>
                </mxCell>
                <mxCell id="VVbpX6g2l4Uk3AssUya3-19" value="" style="endArrow=classic;html=1;rounded=0;fontSize=11;entryX=1;entryY=1;entryDx=0;entryDy=0;entryPerimeter=0;" parent="VVbpX6g2l4Uk3AssUya3-3" target="VVbpX6g2l4Uk3AssUya3-8" edge="1">
                    <mxGeometry relative="1" as="geometry">
                        <mxPoint x="260" y="280" as="sourcePoint"/>
                        <mxPoint x="360" y="330" as="targetPoint"/>
                    </mxGeometry>
                </mxCell>
                <mxCell id="VVbpX6g2l4Uk3AssUya3-20" value="4. IAM policies" style="edgeLabel;resizable=0;html=1;align=center;verticalAlign=middle;fontSize=11;" parent="VVbpX6g2l4Uk3AssUya3-19" connectable="0" vertex="1">
                    <mxGeometry relative="1" as="geometry"/>
                </mxCell>
                <mxCell id="VVbpX6g2l4Uk3AssUya3-34" value="test-api-v2-incoming-files-asovd" style="sketch=0;outlineConnect=0;fontColor=#232F3E;gradientColor=none;fillColor=#3F8624;strokeColor=none;dashed=0;verticalLabelPosition=bottom;verticalAlign=top;align=center;html=1;fontSize=11;fontStyle=0;aspect=fixed;pointerEvents=1;shape=mxgraph.aws4.bucket;" parent="VVbpX6g2l4Uk3AssUya3-3" vertex="1">
                    <mxGeometry x="200" y="480" width="38.46" height="40" as="geometry"/>
                </mxCell>
                <mxCell id="VVbpX6g2l4Uk3AssUya3-38" value="test-api-v2-receiveOrderFunction" style="sketch=0;points=[[0,0,0],[0.25,0,0],[0.5,0,0],[0.75,0,0],[1,0,0],[0,1,0],[0.25,1,0],[0.5,1,0],[0.75,1,0],[1,1,0],[0,0.25,0],[0,0.5,0],[0,0.75,0],[1,0.25,0],[1,0.5,0],[1,0.75,0]];outlineConnect=0;fontColor=#232F3E;gradientColor=#F78E04;gradientDirection=north;fillColor=#D05C17;strokeColor=#ffffff;dashed=0;verticalLabelPosition=top;verticalAlign=top;align=center;html=1;fontSize=11;fontStyle=0;aspect=fixed;shape=mxgraph.aws4.resourceIcon;resIcon=mxgraph.aws4.lambda;horizontal=1;labelPosition=center;" parent="VVbpX6g2l4Uk3AssUya3-3" vertex="1">
                    <mxGeometry x="200" y="400" width="40" height="40" as="geometry"/>
                </mxCell>
                <mxCell id="VVbpX6g2l4Uk3AssUya3-41" value="" style="endArrow=classic;html=1;rounded=0;fontSize=11;exitX=0.5;exitY=1;exitDx=0;exitDy=0;exitPerimeter=0;" parent="VVbpX6g2l4Uk3AssUya3-3" source="VVbpX6g2l4Uk3AssUya3-38" target="VVbpX6g2l4Uk3AssUya3-34" edge="1">
                    <mxGeometry relative="1" as="geometry">
                        <mxPoint x="240" y="480" as="sourcePoint"/>
                        <mxPoint x="340" y="480" as="targetPoint"/>
                    </mxGeometry>
                </mxCell>
                <mxCell id="VVbpX6g2l4Uk3AssUya3-42" value="7. File in request body" style="edgeLabel;resizable=0;html=1;align=center;verticalAlign=middle;fontSize=11;" parent="VVbpX6g2l4Uk3AssUya3-41" connectable="0" vertex="1">
                    <mxGeometry relative="1" as="geometry"/>
                </mxCell>
                <mxCell id="VVbpX6g2l4Uk3AssUya3-43" value="test-api-v2-authFunction" style="sketch=0;points=[[0,0,0],[0.25,0,0],[0.5,0,0],[0.75,0,0],[1,0,0],[0,1,0],[0.25,1,0],[0.5,1,0],[0.75,1,0],[1,1,0],[0,0.25,0],[0,0.5,0],[0,0.75,0],[1,0.25,0],[1,0.5,0],[1,0.75,0]];outlineConnect=0;fontColor=#232F3E;gradientColor=#F78E04;gradientDirection=north;fillColor=#D05C17;strokeColor=#ffffff;dashed=0;verticalLabelPosition=top;verticalAlign=top;align=center;html=1;fontSize=11;fontStyle=0;aspect=fixed;shape=mxgraph.aws4.resourceIcon;resIcon=mxgraph.aws4.lambda;labelPosition=center;" parent="VVbpX6g2l4Uk3AssUya3-3" vertex="1">
                    <mxGeometry x="80" y="80" width="40" height="40" as="geometry"/>
                </mxCell>
                <mxCell id="VVbpX6g2l4Uk3AssUya3-44" value="" style="endArrow=classic;html=1;rounded=0;entryX=0;entryY=0;entryDx=0;entryDy=0;entryPerimeter=0;fontSize=11;" parent="VVbpX6g2l4Uk3AssUya3-3" target="VVbpX6g2l4Uk3AssUya3-43" edge="1">
                    <mxGeometry relative="1" as="geometry">
                        <mxPoint x="-80" y="80" as="sourcePoint"/>
                        <mxPoint x="80" y="99.75999999999999" as="targetPoint"/>
                    </mxGeometry>
                </mxCell>
                <mxCell id="VVbpX6g2l4Uk3AssUya3-45" value="1. GET files" style="edgeLabel;resizable=0;html=1;align=center;verticalAlign=middle;fontSize=11;" parent="VVbpX6g2l4Uk3AssUya3-44" connectable="0" vertex="1">
                    <mxGeometry relative="1" as="geometry"/>
                </mxCell>
                <mxCell id="VVbpX6g2l4Uk3AssUya3-46" value="" style="endArrow=classic;html=1;rounded=0;fontSize=11;entryX=1;entryY=1;entryDx=0;entryDy=0;entryPerimeter=0;exitX=1;exitY=0;exitDx=0;exitDy=0;exitPerimeter=0;" parent="VVbpX6g2l4Uk3AssUya3-3" source="VVbpX6g2l4Uk3AssUya3-8" target="VVbpX6g2l4Uk3AssUya3-43" edge="1">
                    <mxGeometry relative="1" as="geometry">
                        <mxPoint x="119.51999999999998" y="120" as="sourcePoint"/>
                        <mxPoint x="119.51999999999998" y="240" as="targetPoint"/>
                    </mxGeometry>
                </mxCell>
                <mxCell id="VVbpX6g2l4Uk3AssUya3-47" value="5. user policy document" style="edgeLabel;resizable=0;html=1;align=center;verticalAlign=middle;fontSize=11;" parent="VVbpX6g2l4Uk3AssUya3-46" connectable="0" vertex="1">
                    <mxGeometry relative="1" as="geometry">
                        <mxPoint x="20" y="30" as="offset"/>
                    </mxGeometry>
                </mxCell>
                <mxCell id="VVbpX6g2l4Uk3AssUya3-48" value="" style="endArrow=classic;html=1;rounded=0;fontSize=11;entryX=0;entryY=0;entryDx=0;entryDy=0;entryPerimeter=0;exitX=0;exitY=1;exitDx=0;exitDy=0;exitPerimeter=0;" parent="VVbpX6g2l4Uk3AssUya3-3" source="VVbpX6g2l4Uk3AssUya3-43" target="VVbpX6g2l4Uk3AssUya3-8" edge="1">
                    <mxGeometry relative="1" as="geometry">
                        <mxPoint x="90" y="30" as="sourcePoint"/>
                        <mxPoint x="90" y="150" as="targetPoint"/>
                    </mxGeometry>
                </mxCell>
                <mxCell id="VVbpX6g2l4Uk3AssUya3-49" value="2. get groups for user" style="edgeLabel;resizable=0;html=1;align=center;verticalAlign=middle;fontSize=11;" parent="VVbpX6g2l4Uk3AssUya3-48" connectable="0" vertex="1">
                    <mxGeometry relative="1" as="geometry">
                        <mxPoint x="-20" y="-30" as="offset"/>
                    </mxGeometry>
                </mxCell>
                <mxCell id="VVbpX6g2l4Uk3AssUya3-4" value="" style="swimlane;startSize=0;fontSize=11;" parent="1" vertex="1">
                    <mxGeometry x="600" y="320" width="480" height="560" as="geometry"/>
                </mxCell>
                <mxCell id="VVbpX6g2l4Uk3AssUya3-54" value="athena-query-agb43j" style="sketch=0;points=[[0,0,0],[0.25,0,0],[0.5,0,0],[0.75,0,0],[1,0,0],[0,1,0],[0.25,1,0],[0.5,1,0],[0.75,1,0],[1,1,0],[0,0.25,0],[0,0.5,0],[0,0.75,0],[1,0.25,0],[1,0.5,0],[1,0.75,0]];outlineConnect=0;fontColor=#232F3E;gradientColor=#F78E04;gradientDirection=north;fillColor=#D05C17;strokeColor=#ffffff;dashed=0;verticalLabelPosition=top;verticalAlign=top;align=center;html=1;fontSize=11;fontStyle=0;aspect=fixed;shape=mxgraph.aws4.resourceIcon;resIcon=mxgraph.aws4.lambda;labelPosition=center;" parent="VVbpX6g2l4Uk3AssUya3-4" vertex="1">
                    <mxGeometry x="60" y="80" width="40" height="40" as="geometry"/>
                </mxCell>
                <mxCell id="VVbpX6g2l4Uk3AssUya3-59" value="" style="sketch=0;points=[[0,0,0],[0.25,0,0],[0.5,0,0],[0.75,0,0],[1,0,0],[0,1,0],[0.25,1,0],[0.5,1,0],[0.75,1,0],[1,1,0],[0,0.25,0],[0,0.5,0],[0,0.75,0],[1,0.25,0],[1,0.5,0],[1,0.75,0]];outlineConnect=0;fontColor=#232F3E;gradientColor=#945DF2;gradientDirection=north;fillColor=#5A30B5;strokeColor=#ffffff;dashed=0;verticalLabelPosition=bottom;verticalAlign=top;align=center;html=1;fontSize=11;fontStyle=0;aspect=fixed;shape=mxgraph.aws4.resourceIcon;resIcon=mxgraph.aws4.athena;" parent="VVbpX6g2l4Uk3AssUya3-4" vertex="1">
                    <mxGeometry x="60" y="200" width="40" height="40" as="geometry"/>
                </mxCell>
                <mxCell id="VVbpX6g2l4Uk3AssUya3-62" value="" style="endArrow=classic;html=1;rounded=0;fontSize=11;exitX=0;exitY=1;exitDx=0;exitDy=0;exitPerimeter=0;entryX=0;entryY=0;entryDx=0;entryDy=0;entryPerimeter=0;" parent="VVbpX6g2l4Uk3AssUya3-4" source="VVbpX6g2l4Uk3AssUya3-54" target="VVbpX6g2l4Uk3AssUya3-59" edge="1">
                    <mxGeometry relative="1" as="geometry">
                        <mxPoint x="240" y="240" as="sourcePoint"/>
                        <mxPoint x="340" y="240" as="targetPoint"/>
                    </mxGeometry>
                </mxCell>
                <mxCell id="VVbpX6g2l4Uk3AssUya3-63" value="7. Athena Query" style="edgeLabel;resizable=0;html=1;align=center;verticalAlign=middle;fontSize=11;" parent="VVbpX6g2l4Uk3AssUya3-62" connectable="0" vertex="1">
                    <mxGeometry relative="1" as="geometry">
                        <mxPoint x="-10" y="-20" as="offset"/>
                    </mxGeometry>
                </mxCell>
                <mxCell id="VVbpX6g2l4Uk3AssUya3-64" value="" style="endArrow=classic;html=1;rounded=0;fontSize=11;exitX=1;exitY=0;exitDx=0;exitDy=0;exitPerimeter=0;entryX=1;entryY=1;entryDx=0;entryDy=0;entryPerimeter=0;" parent="VVbpX6g2l4Uk3AssUya3-4" source="VVbpX6g2l4Uk3AssUya3-59" target="VVbpX6g2l4Uk3AssUya3-54" edge="1">
                    <mxGeometry relative="1" as="geometry">
                        <mxPoint x="130" y="130" as="sourcePoint"/>
                        <mxPoint x="130" y="210" as="targetPoint"/>
                    </mxGeometry>
                </mxCell>
                <mxCell id="VVbpX6g2l4Uk3AssUya3-65" value="8. Query result" style="edgeLabel;resizable=0;html=1;align=center;verticalAlign=middle;fontSize=11;" parent="VVbpX6g2l4Uk3AssUya3-64" connectable="0" vertex="1">
                    <mxGeometry relative="1" as="geometry">
                        <mxPoint x="10" y="20" as="offset"/>
                    </mxGeometry>
                </mxCell>
                <mxCell id="VVbpX6g2l4Uk3AssUya3-77" value="athena-bucket-agb43j-results" style="sketch=0;outlineConnect=0;fontColor=#232F3E;gradientColor=none;fillColor=#3F8624;strokeColor=none;dashed=0;verticalLabelPosition=bottom;verticalAlign=top;align=center;html=1;fontSize=11;fontStyle=0;aspect=fixed;pointerEvents=1;shape=mxgraph.aws4.bucket;labelPosition=center;" parent="VVbpX6g2l4Uk3AssUya3-4" vertex="1">
                    <mxGeometry x="61.54" y="280" width="38.46" height="40" as="geometry"/>
                </mxCell>
                <mxCell id="VVbpX6g2l4Uk3AssUya3-78" value="" style="endArrow=classic;html=1;rounded=0;fontSize=11;exitX=0.5;exitY=1;exitDx=0;exitDy=0;exitPerimeter=0;" parent="VVbpX6g2l4Uk3AssUya3-4" source="VVbpX6g2l4Uk3AssUya3-59" target="VVbpX6g2l4Uk3AssUya3-77" edge="1">
                    <mxGeometry relative="1" as="geometry">
                        <mxPoint x="140" y="270" as="sourcePoint"/>
                        <mxPoint x="240" y="270" as="targetPoint"/>
                    </mxGeometry>
                </mxCell>
                <mxCell id="VVbpX6g2l4Uk3AssUya3-79" value="7.5 result" style="edgeLabel;resizable=0;html=1;align=center;verticalAlign=middle;fontSize=11;" parent="VVbpX6g2l4Uk3AssUya3-78" connectable="0" vertex="1">
                    <mxGeometry relative="1" as="geometry"/>
                </mxCell>
                <mxCell id="5" style="edgeStyle=none;html=1;fontSize=10;" edge="1" parent="VVbpX6g2l4Uk3AssUya3-4" source="VVbpX6g2l4Uk3AssUya3-74" target="2">
                    <mxGeometry relative="1" as="geometry"/>
                </mxCell>
                <mxCell id="VVbpX6g2l4Uk3AssUya3-74" value="&lt;font style=&quot;font-size: 11px;&quot;&gt;athena-bucket-agb43j&lt;/font&gt;" style="sketch=0;outlineConnect=0;fontColor=#232F3E;gradientColor=none;fillColor=#3F8624;strokeColor=none;dashed=0;verticalLabelPosition=top;verticalAlign=bottom;align=center;html=1;fontSize=11;fontStyle=0;aspect=fixed;pointerEvents=1;shape=mxgraph.aws4.bucket;labelPosition=center;" parent="VVbpX6g2l4Uk3AssUya3-4" vertex="1">
                    <mxGeometry x="180" y="120" width="38.46" height="40" as="geometry"/>
                </mxCell>
                <mxCell id="4" style="edgeStyle=none;html=1;exitX=1;exitY=0.5;exitDx=0;exitDy=0;exitPerimeter=0;fontSize=10;" edge="1" parent="VVbpX6g2l4Uk3AssUya3-4" source="VVbpX6g2l4Uk3AssUya3-86">
                    <mxGeometry relative="1" as="geometry">
                        <mxPoint x="247.00000000000023" y="60" as="targetPoint"/>
                    </mxGeometry>
                </mxCell>
                <mxCell id="VVbpX6g2l4Uk3AssUya3-86" value="File" style="whiteSpace=wrap;html=1;shape=mxgraph.basic.document;fontSize=11;" parent="VVbpX6g2l4Uk3AssUya3-4" vertex="1">
                    <mxGeometry x="185.00000000000003" y="40" width="30" height="40" as="geometry"/>
                </mxCell>
                <mxCell id="VVbpX6g2l4Uk3AssUya3-87" value="" style="endArrow=classic;html=1;rounded=0;fontSize=11;exitX=0.5;exitY=1;exitDx=0;exitDy=0;exitPerimeter=0;" parent="VVbpX6g2l4Uk3AssUya3-4" source="VVbpX6g2l4Uk3AssUya3-86" target="VVbpX6g2l4Uk3AssUya3-74" edge="1">
                    <mxGeometry width="50" height="50" relative="1" as="geometry">
                        <mxPoint x="200" y="230" as="sourcePoint"/>
                        <mxPoint x="250" y="180" as="targetPoint"/>
                    </mxGeometry>
                </mxCell>
                <mxCell id="VVbpX6g2l4Uk3AssUya3-94" value="Starts crawler" style="edgeStyle=orthogonalEdgeStyle;rounded=0;orthogonalLoop=1;jettySize=auto;html=1;fontSize=11;exitX=0.5;exitY=1;exitDx=0;exitDy=0;exitPerimeter=0;" parent="VVbpX6g2l4Uk3AssUya3-4" source="VVbpX6g2l4Uk3AssUya3-90" target="VVbpX6g2l4Uk3AssUya3-95" edge="1">
                    <mxGeometry relative="1" as="geometry">
                        <mxPoint x="200" y="330" as="sourcePoint"/>
                        <Array as="points"/>
                    </mxGeometry>
                </mxCell>
                <mxCell id="VVbpX6g2l4Uk3AssUya3-90" value="&lt;font style=&quot;font-size: 11px;&quot;&gt;athena-stepFunction-agb43j&lt;br style=&quot;font-size: 11px;&quot;&gt;&lt;/font&gt;" style="sketch=0;points=[[0,0,0],[0.25,0,0],[0.5,0,0],[0.75,0,0],[1,0,0],[0,1,0],[0.25,1,0],[0.5,1,0],[0.75,1,0],[1,1,0],[0,0.25,0],[0,0.5,0],[0,0.75,0],[1,0.25,0],[1,0.5,0],[1,0.75,0]];outlineConnect=0;fontColor=#232F3E;gradientColor=#FF4F8B;gradientDirection=north;fillColor=#BC1356;strokeColor=#ffffff;dashed=0;verticalLabelPosition=top;verticalAlign=bottom;align=center;html=1;fontSize=11;fontStyle=0;aspect=fixed;shape=mxgraph.aws4.resourceIcon;resIcon=mxgraph.aws4.step_functions;labelPosition=center;" parent="VVbpX6g2l4Uk3AssUya3-4" vertex="1">
                    <mxGeometry x="179.00000000000003" y="240" width="40" height="40" as="geometry"/>
                </mxCell>
                <mxCell id="VVbpX6g2l4Uk3AssUya3-92" value="" style="edgeStyle=orthogonalEdgeStyle;rounded=0;orthogonalLoop=1;jettySize=auto;html=1;fontSize=11;entryX=0.5;entryY=0;entryDx=0;entryDy=0;endArrow=none;" parent="VVbpX6g2l4Uk3AssUya3-4" source="VVbpX6g2l4Uk3AssUya3-74" target="VVbpX6g2l4Uk3AssUya3-90" edge="1">
                    <mxGeometry relative="1" as="geometry">
                        <mxPoint x="799.24" y="480" as="sourcePoint"/>
                        <mxPoint x="799.23" y="560" as="targetPoint"/>
                    </mxGeometry>
                </mxCell>
                <mxCell id="VVbpX6g2l4Uk3AssUya3-93" value="S3 put event" style="edgeLabel;html=1;align=center;verticalAlign=middle;resizable=0;points=[];fontSize=11;" parent="VVbpX6g2l4Uk3AssUya3-92" vertex="1" connectable="0">
                    <mxGeometry x="-0.3307" y="1" relative="1" as="geometry">
                        <mxPoint as="offset"/>
                    </mxGeometry>
                </mxCell>
                <mxCell id="VVbpX6g2l4Uk3AssUya3-57" value="" style="sketch=0;points=[[0,0,0],[0.25,0,0],[0.5,0,0],[0.75,0,0],[1,0,0],[0,1,0],[0.25,1,0],[0.5,1,0],[0.75,1,0],[1,1,0],[0,0.25,0],[0,0.5,0],[0,0.75,0],[1,0.25,0],[1,0.5,0],[1,0.75,0]];outlineConnect=0;fontColor=#232F3E;gradientColor=#945DF2;gradientDirection=north;fillColor=#5A30B5;strokeColor=#ffffff;dashed=0;verticalLabelPosition=bottom;verticalAlign=top;align=center;html=1;fontSize=11;fontStyle=0;aspect=fixed;shape=mxgraph.aws4.resourceIcon;resIcon=mxgraph.aws4.glue;" parent="VVbpX6g2l4Uk3AssUya3-4" vertex="1">
                    <mxGeometry x="180.00000000000003" y="440" width="40" height="40" as="geometry"/>
                </mxCell>
                <mxCell id="7" style="edgeStyle=none;html=1;entryX=0;entryY=0.5;entryDx=0;entryDy=0;entryPerimeter=0;fontSize=10;" edge="1" parent="VVbpX6g2l4Uk3AssUya3-4" source="VVbpX6g2l4Uk3AssUya3-95" target="6">
                    <mxGeometry relative="1" as="geometry"/>
                </mxCell>
                <mxCell id="VVbpX6g2l4Uk3AssUya3-95" value="" style="sketch=0;outlineConnect=0;fontColor=#232F3E;gradientColor=none;fillColor=#4D27AA;strokeColor=none;dashed=0;verticalLabelPosition=bottom;verticalAlign=top;align=center;html=1;fontSize=11;fontStyle=0;aspect=fixed;pointerEvents=1;shape=mxgraph.aws4.glue_crawlers;" parent="VVbpX6g2l4Uk3AssUya3-4" vertex="1">
                    <mxGeometry x="180" y="360" width="40" height="40" as="geometry"/>
                </mxCell>
                <mxCell id="VVbpX6g2l4Uk3AssUya3-96" value="" style="endArrow=classic;html=1;rounded=0;fontSize=11;entryX=0.5;entryY=0;entryDx=0;entryDy=0;entryPerimeter=0;" parent="VVbpX6g2l4Uk3AssUya3-4" source="VVbpX6g2l4Uk3AssUya3-95" target="VVbpX6g2l4Uk3AssUya3-57" edge="1">
                    <mxGeometry width="50" height="50" relative="1" as="geometry">
                        <mxPoint x="250" y="360" as="sourcePoint"/>
                        <mxPoint x="300" y="310" as="targetPoint"/>
                    </mxGeometry>
                </mxCell>
                <mxCell id="VVbpX6g2l4Uk3AssUya3-97" value="Save results" style="edgeLabel;html=1;align=center;verticalAlign=middle;resizable=0;points=[];fontSize=11;" parent="VVbpX6g2l4Uk3AssUya3-96" vertex="1" connectable="0">
                    <mxGeometry x="-0.25" relative="1" as="geometry">
                        <mxPoint as="offset"/>
                    </mxGeometry>
                </mxCell>
                <mxCell id="2" value="Key: customer0/file0.json" style="text;html=1;align=center;verticalAlign=middle;resizable=0;points=[];autosize=1;strokeColor=none;fillColor=none;" vertex="1" parent="VVbpX6g2l4Uk3AssUya3-4">
                    <mxGeometry x="270" y="130" width="150" height="20" as="geometry"/>
                </mxCell>
                <mxCell id="3" value="&lt;div style=&quot;text-align: justify&quot;&gt;&lt;span style=&quot;font-size: 10px&quot;&gt;{&lt;/span&gt;&lt;/div&gt;&lt;font style=&quot;font-size: 10px&quot;&gt;&lt;div style=&quot;text-align: justify&quot;&gt;&lt;span&gt;&amp;nbsp; &amp;nbsp; &quot;updated_at&quot;: &quot;2022-11-12T19:48:02.404Z&quot;,&lt;/span&gt;&lt;/div&gt;&lt;div style=&quot;text-align: justify&quot;&gt;&lt;span&gt;&amp;nbsp; &amp;nbsp; &amp;nbsp;&quot;customer&quot;: &quot;customer0&quot;,&lt;/span&gt;&lt;/div&gt;&lt;div style=&quot;text-align: justify&quot;&gt;&lt;span&gt;&amp;nbsp; &amp;nbsp; &amp;nbsp;&quot;data&quot;: &quot;&quot;&lt;/span&gt;&lt;/div&gt;&lt;div style=&quot;text-align: justify&quot;&gt;&lt;span&gt;}&lt;/span&gt;&lt;/div&gt;&lt;/font&gt;" style="text;html=1;align=left;verticalAlign=middle;resizable=0;points=[];autosize=1;strokeColor=none;fillColor=none;" vertex="1" parent="VVbpX6g2l4Uk3AssUya3-4">
                    <mxGeometry x="250" y="20" width="220" height="80" as="geometry"/>
                </mxCell>
                <mxCell id="6" value="&lt;font style=&quot;font-size: 11px&quot;&gt;Data&amp;nbsp; added to table 'customer0'&lt;/font&gt;" style="text;html=1;align=center;verticalAlign=middle;resizable=0;points=[];autosize=1;strokeColor=none;fillColor=none;fontSize=10;" vertex="1" parent="VVbpX6g2l4Uk3AssUya3-4">
                    <mxGeometry x="260" y="370" width="170" height="20" as="geometry"/>
                </mxCell>
                <mxCell id="VVbpX6g2l4Uk3AssUya3-30" value="Actor" style="shape=umlActor;verticalLabelPosition=bottom;verticalAlign=top;html=1;outlineConnect=0;fontSize=11;" parent="1" vertex="1">
                    <mxGeometry x="80" y="390" width="30" height="60" as="geometry"/>
                </mxCell>
                <mxCell id="VVbpX6g2l4Uk3AssUya3-31" value="test-api-v2-authFunction" style="sketch=0;points=[[0,0,0],[0.25,0,0],[0.5,0,0],[0.75,0,0],[1,0,0],[0,1,0],[0.25,1,0],[0.5,1,0],[0.75,1,0],[1,1,0],[0,0.25,0],[0,0.5,0],[0,0.75,0],[1,0.25,0],[1,0.5,0],[1,0.75,0]];outlineConnect=0;fontColor=#232F3E;gradientColor=#F78E04;gradientDirection=north;fillColor=#D05C17;strokeColor=#ffffff;dashed=0;verticalLabelPosition=bottom;verticalAlign=top;align=center;html=1;fontSize=11;fontStyle=0;aspect=fixed;shape=mxgraph.aws4.resourceIcon;resIcon=mxgraph.aws4.lambda;" parent="1" vertex="1">
                    <mxGeometry x="280" y="720" width="40" height="40" as="geometry"/>
                </mxCell>
                <mxCell id="VVbpX6g2l4Uk3AssUya3-35" value="Actor" style="shape=umlActor;verticalLabelPosition=bottom;verticalAlign=top;html=1;outlineConnect=0;fontSize=11;" parent="1" vertex="1">
                    <mxGeometry x="80" y="710" width="30" height="60" as="geometry"/>
                </mxCell>
                <mxCell id="VVbpX6g2l4Uk3AssUya3-36" value="" style="endArrow=classic;html=1;rounded=0;entryX=0;entryY=0.5;entryDx=0;entryDy=0;entryPerimeter=0;fontSize=11;" parent="1" source="VVbpX6g2l4Uk3AssUya3-35" target="VVbpX6g2l4Uk3AssUya3-31" edge="1">
                    <mxGeometry relative="1" as="geometry">
                        <mxPoint x="200" y="749.71" as="sourcePoint"/>
                        <mxPoint x="280" y="750" as="targetPoint"/>
                    </mxGeometry>
                </mxCell>
                <mxCell id="VVbpX6g2l4Uk3AssUya3-37" value="1. POST file" style="edgeLabel;resizable=0;html=1;align=center;verticalAlign=middle;fontSize=11;" parent="VVbpX6g2l4Uk3AssUya3-36" connectable="0" vertex="1">
                    <mxGeometry relative="1" as="geometry"/>
                </mxCell>
                <mxCell id="VVbpX6g2l4Uk3AssUya3-23" value="" style="endArrow=classic;html=1;rounded=0;fontSize=11;exitX=1;exitY=1;exitDx=0;exitDy=0;exitPerimeter=0;entryX=1;entryY=0;entryDx=0;entryDy=0;entryPerimeter=0;" parent="1" source="VVbpX6g2l4Uk3AssUya3-8" target="VVbpX6g2l4Uk3AssUya3-31" edge="1">
                    <mxGeometry relative="1" as="geometry">
                        <mxPoint x="420" y="700" as="sourcePoint"/>
                        <mxPoint x="320" y="760" as="targetPoint"/>
                    </mxGeometry>
                </mxCell>
                <mxCell id="VVbpX6g2l4Uk3AssUya3-24" value="5. user policy document" style="edgeLabel;resizable=0;html=1;align=center;verticalAlign=middle;fontSize=11;" parent="VVbpX6g2l4Uk3AssUya3-23" connectable="0" vertex="1">
                    <mxGeometry relative="1" as="geometry">
                        <mxPoint x="20" y="-20" as="offset"/>
                    </mxGeometry>
                </mxCell>
                <mxCell id="VVbpX6g2l4Uk3AssUya3-15" value="" style="endArrow=classic;html=1;rounded=0;fontSize=11;entryX=0;entryY=1;entryDx=0;entryDy=0;entryPerimeter=0;exitX=0;exitY=0;exitDx=0;exitDy=0;exitPerimeter=0;" parent="1" source="VVbpX6g2l4Uk3AssUya3-31" target="VVbpX6g2l4Uk3AssUya3-8" edge="1">
                    <mxGeometry relative="1" as="geometry">
                        <mxPoint x="280" y="760" as="sourcePoint"/>
                        <mxPoint x="510" y="610" as="targetPoint"/>
                    </mxGeometry>
                </mxCell>
                <mxCell id="VVbpX6g2l4Uk3AssUya3-16" value="2. get groups for user" style="edgeLabel;resizable=0;html=1;align=center;verticalAlign=middle;fontSize=11;" parent="VVbpX6g2l4Uk3AssUya3-15" connectable="0" vertex="1">
                    <mxGeometry relative="1" as="geometry">
                        <mxPoint x="-20" y="30" as="offset"/>
                    </mxGeometry>
                </mxCell>
                <mxCell id="VVbpX6g2l4Uk3AssUya3-32" value="" style="endArrow=classic;html=1;rounded=0;fontSize=11;exitX=1;exitY=0.5;exitDx=0;exitDy=0;exitPerimeter=0;entryX=0;entryY=0.5;entryDx=0;entryDy=0;entryPerimeter=0;" parent="1" source="VVbpX6g2l4Uk3AssUya3-31" target="VVbpX6g2l4Uk3AssUya3-38" edge="1">
                    <mxGeometry relative="1" as="geometry">
                        <mxPoint x="200" y="360" as="sourcePoint"/>
                        <mxPoint x="300" y="360" as="targetPoint"/>
                    </mxGeometry>
                </mxCell>
                <mxCell id="VVbpX6g2l4Uk3AssUya3-33" value="6. request" style="edgeLabel;resizable=0;html=1;align=center;verticalAlign=middle;fontSize=11;" parent="VVbpX6g2l4Uk3AssUya3-32" connectable="0" vertex="1">
                    <mxGeometry relative="1" as="geometry"/>
                </mxCell>
                <mxCell id="VVbpX6g2l4Uk3AssUya3-50" value="&lt;div class=&quot;awsui-util-action-stripe-title&quot; style=&quot;font-size: 11px;&quot;&gt;&lt;span class=&quot;e2e-test-stack-details-header awsui_root_18wu0_dj6ht_93 awsui_box_18wu0_dj6ht_205 awsui_color-default_18wu0_dj6ht_205 awsui_font-size-heading-xl_18wu0_dj6ht_366 awsui_font-weight-default_18wu0_dj6ht_261&quot; style=&quot;font-size: 11px;&quot;&gt;test-api-v2&lt;/span&gt;&lt;div class=&quot;awsui_root_18wu0_dj6ht_93 awsui_box_18wu0_dj6ht_205 awsui_m-left-s_18wu0_dj6ht_853 awsui_d-inline-block_18wu0_dj6ht_984 awsui_color-default_18wu0_dj6ht_205 awsui_font-size-default_18wu0_dj6ht_221 awsui_font-weight-default_18wu0_dj6ht_261&quot; style=&quot;font-size: 11px;&quot;&gt;&lt;br style=&quot;font-size: 11px;&quot;&gt;&lt;/div&gt;&lt;/div&gt;" style="text;html=1;align=center;verticalAlign=middle;resizable=0;points=[];autosize=1;strokeColor=none;fillColor=none;fontSize=11;" parent="1" vertex="1">
                    <mxGeometry x="325" y="290" width="80" height="40" as="geometry"/>
                </mxCell>
                <mxCell id="VVbpX6g2l4Uk3AssUya3-51" value="glue-bucket-crawler" style="text;html=1;align=center;verticalAlign=middle;resizable=0;points=[];autosize=1;strokeColor=none;fillColor=none;fontSize=11;" parent="1" vertex="1">
                    <mxGeometry x="770" y="290" width="120" height="30" as="geometry"/>
                </mxCell>
                <mxCell id="VVbpX6g2l4Uk3AssUya3-52" value="" style="endArrow=classic;html=1;rounded=0;entryX=0;entryY=0;entryDx=0;entryDy=0;entryPerimeter=0;exitX=1;exitY=0;exitDx=0;exitDy=0;exitPerimeter=0;fontSize=11;" parent="1" source="VVbpX6g2l4Uk3AssUya3-43" target="VVbpX6g2l4Uk3AssUya3-54" edge="1">
                    <mxGeometry relative="1" as="geometry">
                        <mxPoint x="320" y="419.65999999999997" as="sourcePoint"/>
                        <mxPoint x="580" y="370" as="targetPoint"/>
                    </mxGeometry>
                </mxCell>
                <mxCell id="VVbpX6g2l4Uk3AssUya3-53" value="6. request" style="edgeLabel;resizable=0;html=1;align=center;verticalAlign=middle;fontSize=11;" parent="VVbpX6g2l4Uk3AssUya3-52" connectable="0" vertex="1">
                    <mxGeometry relative="1" as="geometry"/>
                </mxCell>
                <mxCell id="VVbpX6g2l4Uk3AssUya3-66" value="" style="endArrow=classic;html=1;rounded=0;entryX=1;entryY=1;entryDx=0;entryDy=0;entryPerimeter=0;exitX=0;exitY=1;exitDx=0;exitDy=0;exitPerimeter=0;fontSize=11;" parent="1" source="VVbpX6g2l4Uk3AssUya3-54" target="VVbpX6g2l4Uk3AssUya3-43" edge="1">
                    <mxGeometry relative="1" as="geometry">
                        <mxPoint x="330" y="410" as="sourcePoint"/>
                        <mxPoint x="650" y="410" as="targetPoint"/>
                    </mxGeometry>
                </mxCell>
                <mxCell id="VVbpX6g2l4Uk3AssUya3-67" value="9. response" style="edgeLabel;resizable=0;html=1;align=center;verticalAlign=middle;fontSize=11;" parent="VVbpX6g2l4Uk3AssUya3-66" connectable="0" vertex="1">
                    <mxGeometry relative="1" as="geometry"/>
                </mxCell>
                <mxCell id="VVbpX6g2l4Uk3AssUya3-68" value="" style="endArrow=classic;html=1;rounded=0;exitX=0;exitY=1;exitDx=0;exitDy=0;exitPerimeter=0;fontSize=11;" parent="1" source="VVbpX6g2l4Uk3AssUya3-43" edge="1">
                    <mxGeometry relative="1" as="geometry">
                        <mxPoint x="130" y="410" as="sourcePoint"/>
                        <mxPoint x="120" y="440" as="targetPoint"/>
                    </mxGeometry>
                </mxCell>
                <mxCell id="VVbpX6g2l4Uk3AssUya3-69" value="10. response files" style="edgeLabel;resizable=0;html=1;align=center;verticalAlign=middle;fontSize=11;" parent="VVbpX6g2l4Uk3AssUya3-68" connectable="0" vertex="1">
                    <mxGeometry relative="1" as="geometry"/>
                </mxCell>
            </root>
        </mxGraphModel>
    </diagram>
</mxfile>